<svg width="24" height="24" viewBox="0 0 24 24" fill="none" xmlns="http://www.w3.org/2000/svg">
<path fill-rule="evenodd" clip-rule="evenodd" d="M8.78161 6.96839C8.71194 6.89854 8.62918 6.84313 8.53806 6.80532C8.44694 6.76751 8.34926 6.74805 8.25061 6.74805C8.15196 6.74805 8.05428 6.76751 7.96316 6.80532C7.87204 6.84313 7.78928 6.89854 7.71961 6.96839L3.21961 11.4684C3.14977 11.5381 3.09435 11.6208 3.05654 11.7119C3.01873 11.8031 2.99927 11.9007 2.99927 11.9994C2.99927 12.098 3.01873 12.1957 3.05654 12.2868C3.09435 12.378 3.14977 12.4607 3.21961 12.5304L7.71961 17.0304C7.86044 17.1712 8.05145 17.2503 8.25061 17.2503C8.44978 17.2503 8.64078 17.1712 8.78161 17.0304C8.92244 16.8896 9.00156 16.6985 9.00156 16.4994C9.00156 16.3002 8.92244 16.1092 8.78161 15.9684L4.81111 11.9994L8.78161 8.03039C8.85146 7.96072 8.90687 7.87796 8.94468 7.78684C8.98249 7.69572 9.00195 7.59804 9.00195 7.49939C9.00195 7.40074 8.98249 7.30305 8.94468 7.21194C8.90687 7.12082 8.85146 7.03806 8.78161 6.96839Z" fill="#3E6F26"/>
<path fill-rule="evenodd" clip-rule="evenodd" d="M21 12C21 11.8011 20.921 11.6103 20.7803 11.4697C20.6397 11.329 20.4489 11.25 20.25 11.25H4.5C4.30109 11.25 4.11032 11.329 3.96967 11.4697C3.82902 11.6103 3.75 11.8011 3.75 12C3.75 12.1989 3.82902 12.3897 3.96967 12.5303C4.11032 12.671 4.30109 12.75 4.5 12.75H20.25C20.4489 12.75 20.6397 12.671 20.7803 12.5303C20.921 12.3897 21 12.1989 21 12Z" fill="#3E6F26"/>
</svg>
